<svg width="30" height="30" viewBox="0 0 30 30" fill="none" xmlns="http://www.w3.org/2000/svg">
<path d="M11.9062 25.1793V18.2403C11.9062 18.02 11.9748 17.8424 12.1121 17.7074C12.2493 17.5724 12.4335 17.5048 12.6647 17.5048H17.357C17.5809 17.5048 17.7579 17.5724 17.8879 17.7074C18.0252 17.8424 18.0938 18.02 18.0938 18.2403V25.1793H11.9062ZM3.20438 14.7762C2.98765 14.7762 2.81426 14.7122 2.68422 14.5843C2.56141 14.4493 2.5 14.3001 2.5 14.1366C2.5 13.9234 2.59392 13.7422 2.78175 13.593L13.8459 4.45833C14.2071 4.15278 14.5936 4 15.0054 4C15.41 4 15.7965 4.15278 16.1649 4.45833L27.2291 13.593C27.4097 13.7422 27.5 13.9234 27.5 14.1366C27.5 14.3001 27.4386 14.4493 27.3158 14.5843C27.193 14.7122 27.0196 14.7762 26.7956 14.7762C26.68 14.7762 26.5753 14.7513 26.4814 14.7016C26.3947 14.6518 26.308 14.595 26.2213 14.531L15.428 5.6095C15.298 5.4958 15.1571 5.43895 15.0054 5.43895C14.8537 5.43895 14.7128 5.4958 14.5828 5.6095L3.78955 14.531C3.70286 14.595 3.61256 14.6518 3.51864 14.7016C3.42472 14.7513 3.31997 14.7762 3.20438 14.7762ZM22.2334 9.90504V7.18702C22.2334 6.99516 22.2948 6.84238 22.4176 6.72868C22.5405 6.61499 22.6958 6.55814 22.8836 6.55814H23.9023C24.0973 6.55814 24.2526 6.61499 24.3682 6.72868C24.4838 6.84238 24.5416 6.99516 24.5416 7.18702V11.8236L22.2334 9.90504ZM7.7124 26C6.98996 26 6.43368 25.8117 6.04356 25.4351C5.65345 25.0656 5.45839 24.5255 5.45839 23.8149V12.0475L6.79129 11.1521V23.5058C6.79129 23.9037 6.88882 24.1986 7.08388 24.3905C7.28616 24.5895 7.58597 24.689 7.98331 24.689H22.0275C22.4249 24.689 22.7211 24.5895 22.9161 24.3905C23.1112 24.1986 23.2087 23.9037 23.2087 23.5058V11.1308L24.5416 12.0475V23.8149C24.5416 24.5184 24.3466 25.0585 23.9564 25.4351C23.5735 25.8117 23.0245 26 22.3093 26H7.7124Z" fill="#CECBF6"/>
</svg>
